<svg xmlns="http://www.w3.org/2000/svg" viewBox="0 0 49.62616 32.04913"><defs><style>.cls-1{fill:#ddbc58;}</style></defs><title>blr_logo</title><g id="Layer_2" data-name="Layer 2"><g id="Layer_1-2" data-name="Layer 1"><g id="Page-1"><path id="Fill-1" class="cls-1" d="M10.58386,14.87569a4.35069,4.35069,0,0,0-2.48819-.70728c-.54055-.02933-.83976-.02933-1.29-.02933-.11909,0-.17894.05925-.17894.20571v6.989c0,1.94508.08917,2.44685,1.04862,2.83012a5.47871,5.47871,0,0,0,2.18839.35394,3.465,3.465,0,0,0,3.62776-3.77421,6.97977,6.97977,0,0,0-2.90768-5.86791ZM6.62677,12.51683c0,.23622.08917.29488.20886.3248a7.50613,7.50613,0,0,0,1.40906.0878,3.08724,3.08724,0,0,0,2.15965-.56024,3.817,3.817,0,0,0,1.22933-3.125c0-1.97579-1.17008-4.57028-3.74823-4.57028a4.96639,4.96639,0,0,0-.99.05866c-.20886.05866-.2687.177-.2687.50157Zm-3.59862-.50118c0-4.48228,0-5.30807-.05925-6.251C2.90846,4.76053,2.6685,4.29006,1.67854,4.08376A6.29165,6.29165,0,0,0,.51,3.996c-.33051,0-.51-.05925-.51-.26634,0-.2061.20945-.26476.65906-.26476,1.58917,0,3.47894.088,4.078.088,1.4689,0,2.63976-.088,3.65787-.088,5.42717,0,6.386,2.86,6.386,4.42323,0,2.41693-1.40827,3.86161-3.05728,5.15965,2.45689.8252,5.4565,2.9187,5.4565,6.3689,0,3.15492-2.48839,6.42815-8.00531,6.42815-.35965,0-1.22933-.06063-2.09843-.088-.8998-.06043-1.7998-.08976-2.24961-.08976-.32972,0-.98858,0-1.70886.02933-.68957,0-1.4689.06043-2.06929.06043-.38957,0-.59843-.08976-.59843-.29587,0-.14724.11969-.23642.47953-.23642a4.97363,4.97363,0,0,0,1.07972-.11713c.599-.11831.74882-.76653.86909-1.62224.14961-1.23839.14961-3.56811.14961-6.28051Z"/><path id="Fill-3" class="cls-1" d="M22.46593,17.20472c0,3.775.0565,10.11142.0565,10.92579a1.8011,1.8011,0,0,0,.19567,1.088,2.36428,2.36428,0,0,0,2.49508.96221c1.36712-.43051,3.65158-1.11929,4.4309-1.88721a1.25283,1.25283,0,0,0,.44823-.81378c.03346-.26476.07185-.44429.3126-.45394.20886-.00827.24488.13819.25905.49075.01221.325-.13642.7813-.13642,1.60649,0,.67244-.324.985-1.79193,1.49882-2.123.7437-4.26732,1.59626-4.91122,1.39823-1.28858-.39744-4.55157-1.45-5.264-1.551a7.78659,7.78659,0,0,0-2.23622-.07717c-.38465.06063-.77618-.6252-.77618-.83071,0-.14783.11969-.23642.47933-.23642a12.82926,12.82926,0,0,0,1.67027-.11831c.5998-.11772.7502-.76535.86969-1.62165.15039-1.23779.15039-7.66772.15039-10.38012v-5.189c0-4.48228,0-8.77185-.06-9.71595C18.598,1.29823,18.35726.82638,17.36789.61949a4.49631,4.49631,0,0,0-.98878-.08858c-.32973,0-.51063-.05846-.51063-.26594,0-.20571.21063-.265.65945-.265,1.40984,0,3.29823.08839,4.10807.08839C21.35549.08839,23.54447,0,24.71337,0c.42027,0,.63031.05925.63031.265,0,.20748-.18012.26594-.53976.26594a8.06721,8.06721,0,0,0-1.16929.08858c-.80964.14724-1.0498.64882-1.10945,1.68031-.05925.94409-.05925,5.23366-.05925,9.71595Z"/><path id="Fill-5" class="cls-1" d="M31.8736,14.34472c0,.32461.0626.44173.28071.53091a8.6496,8.6496,0,0,0,2.36673.29547,3.24165,3.24165,0,0,0,2.21063-.50177c.93543-.64921,1.83819-2.0061,1.83819-4.423,0-4.18622-2.92815-5.39587-4.76516-5.39587a7.19857,7.19857,0,0,0-1.65039.11772c-.21811.05906-.28071.177-.28071.4126Zm-3.6748-2.32894c0-4.48248,0-5.30748-.06122-6.25118-.063-1.00276-.312-1.47461-1.33957-1.68091a6.8197,6.8197,0,0,0-1.215-.0878c-.34232,0-.52913-.05906-.52913-.26614,0-.2063.21791-.265.68445-.265,1.65118,0,3.6126.088,4.26713.088,1.05846,0,3.42559-.088,4.39134-.088a10.40738,10.40738,0,0,1,5.73031,1.26772,5.03792,5.03792,0,0,1,2.11752,4.03976c0,2.1815-.96575,4.187-4.11161,6.60394,2.772,3.30315,4.92048,5.927,6.75846,7.75492a6.30312,6.30312,0,0,0,3.48839,2.00551,5.15779,5.15779,0,0,0,.87224.08917c.249,0,.374.0878.374.235,0,.23563-.2185.29606-.59291.29606H46.07459a6.64081,6.64081,0,0,1-3.33169-.561c-1.34-.67736-2.52224-2.06476-4.26614-4.33464-1.24527-1.62087-2.67874-3.62658-3.08405-4.0691a.67015.67015,0,0,0-.56024-.2063l-2.70964-.05906c-.15551,0-.24921.05906-.24921.23622v.413c0,2.74232,0,5.07067.15611,6.30906.09311.85453.27953,1.50394,1.215,1.623a15.2264,15.2264,0,0,0,1.52539.11772c.24882,0,.37362.0878.37362.235,0,.20748-.21772.29606-.62264.29606-1.8063,0-4.11043-.08858-4.57717-.08858-.59291,0-2.55433.08858-3.80039.08858-.40512,0-.62284-.08858-.62284-.29606,0-.14724.1248-.235.49882-.235a5.39918,5.39918,0,0,0,1.12106-.11772c.62264-.11909.77874-.7685.903-1.623.15532-1.23839.15532-3.56673.15532-6.27953Z"/></g></g></g></svg>